<svg aria-hidden="true" style="position: absolute; width: 0; height: 0; overflow: hidden;" version="1.1" xmlns="http://www.w3.org/2000/svg" xmlns:xlink="http://www.w3.org/1999/xlink">
<defs>
<symbol id="icon-bucket" viewBox="0 0 32 32">
<path fill="none" stroke="#fff" stroke-width="2.5043" stroke-miterlimit="4" stroke-linecap="butt" stroke-linejoin="miter" style="stroke: var(--color1, #fff)" d="M6.357 11.012h19.286v13.412c0 1.936-1.569 3.505-3.505 3.505h-12.276c-1.936 0-3.505-1.569-3.505-3.505v-13.412z"></path>
<path fill="none" stroke="#fff" stroke-width="2.5043" stroke-miterlimit="4" stroke-linecap="butt" stroke-linejoin="miter" style="stroke: var(--color1, #fff)" d="M11.26 15.916v-7.323c0-2.498 2.025-4.523 4.523-4.523h0.431c2.498 0 4.523 2.025 4.523 4.523v7.323"></path>
</symbol>
<symbol id="icon-Heart" viewBox="0 0 32 32">
<path fill="#858fa4" style="fill: var(--color2, #858fa4)" d="M29.429 5.293c-3.48-3.479-9.142-3.479-12.621 0l-0.808 0.808-0.808-0.808c-3.479-3.48-9.141-3.48-12.62 0-3.409 3.409-3.431 8.812-0.051 12.568 3.082 3.425 12.173 10.825 12.558 11.138 0.262 0.213 0.577 0.317 0.89 0.317 0.010 0 0.021 0 0.031-0 0.324 0.015 0.65-0.096 0.921-0.316 0.386-0.313 9.477-7.713 12.56-11.138 3.379-3.756 3.357-9.159-0.051-12.568zM27.38 15.971c-2.403 2.67-9.009 8.176-11.381 10.13-2.372-1.953-8.976-7.459-11.379-10.129-2.357-2.62-2.38-6.352-0.051-8.68 1.189-1.189 2.751-1.783 4.312-1.783s3.123 0.594 4.312 1.783l1.776 1.776c0.211 0.211 0.478 0.338 0.758 0.382 0.454 0.097 0.947-0.029 1.3-0.381l1.777-1.777c2.379-2.378 6.248-2.377 8.625 0 2.328 2.328 2.306 6.060-0.050 8.68z"></path>
</symbol>
<symbol id="icon-Diagram" viewBox="0 0 32 32">
<path fill="#858fa4" style="fill: var(--color2, #858fa4)" d="M1.882 13.176c1.040 0 1.882 0.843 1.882 1.882v15.059c0 1.040-0.843 1.882-1.882 1.882s-1.882-0.843-1.882-1.882v-15.059c0-1.040 0.843-1.882 1.882-1.882z"></path>
<path fill="#858fa4" style="fill: var(--color2, #858fa4)" d="M11.294-0c1.040 0 1.882 0.843 1.882 1.882v28.235c0 1.040-0.843 1.882-1.882 1.882s-1.882-0.843-1.882-1.882v-28.235c0-1.040 0.843-1.882 1.882-1.882z"></path>
<path fill="#858fa4" style="fill: var(--color2, #858fa4)" d="M20.706 13.176c1.040 0 1.882 0.843 1.882 1.882v15.059c0 1.040-0.843 1.882-1.882 1.882s-1.882-0.843-1.882-1.882v-15.059c0-1.040 0.843-1.882 1.882-1.882z"></path>
<path fill="#858fa4" style="fill: var(--color2, #858fa4)" d="M30.118 7.529c1.040 0 1.882 0.843 1.882 1.882v20.706c0 1.040-0.843 1.882-1.882 1.882s-1.882-0.843-1.882-1.882v-20.706c0-1.040 0.843-1.882 1.882-1.882z"></path>
</symbol>
<symbol id="icon-New" viewBox="0 0 32 32">
<path fill="#2fc509" style="fill: var(--color3, #2fc509)" d="M32 16c0 8.837-7.163 16-16 16s-16-7.163-16-16c0-8.837 7.163-16 16-16s16 7.163 16 16z"></path>
<path fill="#fff" style="fill: var(--color1, #fff)" d="M11.056 13.333h-1.931v3.722h-0.056l-2.528-3.722h-1.639v7.111h1.931v-3.736h0.042l2.569 3.736h1.611v-7.111zM11.969 20.444h5.111v-1.556h-3.181v-1.222h2.931v-1.556h-2.931v-1.222h3.195v-1.556h-5.125v7.111zM19.857 20.444h1.847l1.208-3.972h0.056l1.208 3.972h1.847l2.097-7.111h-2.153l-0.972 4.389h-0.056l-1.153-4.389h-1.694l-1.153 4.375h-0.056l-0.972-4.375h-2.153l2.097 7.111z"></path>
</symbol>
<symbol id="icon-Discount" viewBox="0 0 32 32">
<path fill="#f53b49" style="fill: var(--color4, #f53b49)" d="M32 16c0 8.837-7.163 16-16 16s-16-7.163-16-16c0-8.837 7.163-16 16-16s16 7.163 16 16z"></path>
<path fill="#fff" style="fill: var(--color1, #fff)" d="M12.626 14.85c-0.405 0-0.784-0.064-1.136-0.192-0.341-0.139-0.64-0.32-0.896-0.544s-0.459-0.491-0.608-0.8c-0.139-0.309-0.208-0.64-0.208-0.992s0.069-0.683 0.208-0.992c0.149-0.309 0.352-0.576 0.608-0.8s0.555-0.4 0.896-0.528c0.352-0.139 0.731-0.208 1.136-0.208 0.395 0 0.763 0.069 1.104 0.208 0.352 0.128 0.656 0.304 0.912 0.528s0.459 0.491 0.608 0.8c0.149 0.309 0.224 0.64 0.224 0.992s-0.075 0.683-0.224 0.992c-0.149 0.309-0.352 0.576-0.608 0.8s-0.56 0.405-0.912 0.544c-0.341 0.128-0.709 0.192-1.104 0.192zM12.626 13.41c0.213 0 0.395-0.107 0.544-0.32s0.224-0.469 0.224-0.768c0-0.299-0.075-0.555-0.224-0.768s-0.331-0.32-0.544-0.32c-0.213 0-0.395 0.107-0.544 0.32s-0.224 0.469-0.224 0.768c0 0.299 0.075 0.555 0.224 0.768s0.331 0.32 0.544 0.32zM19.49 21.474c-0.405 0-0.784-0.064-1.136-0.192-0.341-0.139-0.64-0.32-0.896-0.544s-0.459-0.491-0.608-0.8c-0.139-0.309-0.208-0.64-0.208-0.992s0.069-0.683 0.208-0.992c0.149-0.309 0.352-0.576 0.608-0.8s0.555-0.4 0.896-0.528c0.352-0.139 0.731-0.208 1.136-0.208 0.395 0 0.763 0.069 1.104 0.208 0.352 0.128 0.656 0.304 0.912 0.528s0.459 0.491 0.608 0.8c0.149 0.309 0.224 0.64 0.224 0.992s-0.075 0.683-0.224 0.992c-0.149 0.309-0.352 0.576-0.608 0.8s-0.56 0.405-0.912 0.544c-0.341 0.128-0.709 0.192-1.104 0.192zM19.49 20.034c0.213 0 0.395-0.107 0.544-0.32s0.224-0.469 0.224-0.768c0-0.299-0.075-0.555-0.224-0.768s-0.331-0.32-0.544-0.32c-0.213 0-0.395 0.107-0.544 0.32s-0.224 0.469-0.224 0.768c0 0.299 0.075 0.555 0.224 0.768s0.331 0.32 0.544 0.32zM11.122 20.274l4.528-5.104 4.016-5.392 1.328 1.2-4.336 4.944-4.208 5.552-1.328-1.2z"></path>
</symbol>
<symbol id="icon-Like" viewBox="0 0 32 32">
<path fill="#4b7ee8" style="fill: var(--color5, #4b7ee8)" d="M31.999 16c0 8.836-7.163 15.999-15.999 15.999s-15.999-7.163-15.999-15.999c0-8.836 7.163-15.999 15.999-15.999s15.999 7.163 15.999 15.999z"></path>
<path fill="#fff" style="fill: var(--color1, #fff)" d="M10.338 13.797c-0.799 0-1.449 0.65-1.449 1.449v4.637c0 0.799 0.65 1.449 1.449 1.449h1.739c0.326 0 0.627-0.11 0.87-0.293v-7.243h-2.609z"></path>
<path fill="#fff" style="fill: var(--color1, #fff)" d="M22.803 15.971c0-0.348-0.138-0.673-0.377-0.912 0.271-0.296 0.409-0.693 0.371-1.107-0.068-0.737-0.732-1.314-1.512-1.314h-3.581c0.177-0.539 0.461-1.526 0.461-2.319 0-1.257-1.068-2.319-1.739-2.319-0.602 0-1.032 0.339-1.051 0.353-0.068 0.055-0.108 0.139-0.108 0.227v1.966l-1.67 3.617-0.069 0.035v6.213c0.472 0.223 1.069 0.343 1.449 0.343h5.321c0.631 0 1.184-0.425 1.314-1.013 0.067-0.302 0.028-0.606-0.105-0.871 0.428-0.216 0.716-0.657 0.716-1.16 0-0.205-0.047-0.402-0.136-0.58 0.428-0.216 0.716-0.657 0.716-1.159z"></path>
</symbol>
<symbol id="icon-Star" viewBox="0 0 32 32">
<path fill="#f99808" style="fill: var(--color6, #f99808)" d="M16 0.784l5.359 9.446 10.64 2.178-7.328 8.016 1.216 10.792-9.888-4.492-9.888 4.492 1.216-10.792-7.328-8.016 10.64-2.178 5.359-9.446z"></path>
</symbol>
<symbol id="icon-OrangeBlankCircle" viewBox="0 0 32 32">
<path fill="none" stroke="#f99808" stroke-width="3.5556" stroke-miterlimit="4" stroke-linecap="butt" stroke-linejoin="miter" style="stroke: var(--color6, #f99808)" d="M30.067 16c0 7.769-6.298 14.067-14.067 14.067s-14.067-6.298-14.067-14.067c0-7.769 6.298-14.067 14.067-14.067s14.067 6.298 14.067 14.067z"></path>
</symbol>
<symbol id="icon-GreenBlankCircle" viewBox="0 0 32 32">
<path fill="none" stroke="#2fc509" stroke-width="3.5556" stroke-miterlimit="4" stroke-linecap="butt" stroke-linejoin="miter" style="stroke: var(--color3, #2fc509)" d="M30.101 16c0 7.788-6.313 14.101-14.101 14.101s-14.101-6.313-14.101-14.101c0-7.787 6.313-14.101 14.101-14.101s14.101 6.313 14.101 14.101z"></path>
</symbol>
<symbol id="icon-OrangeCircle" viewBox="0 0 32 32">
<path fill="#f99808" style="fill: var(--color6, #f99808)" d="M31.999 16c0 8.836-7.163 15.999-15.999 15.999s-15.999-7.163-15.999-15.999c0-8.836 7.163-15.999 15.999-15.999s15.999 7.163 15.999 15.999z"></path>
</symbol>
<symbol id="icon-RedBlankCircle" viewBox="0 0 32 32">
<path fill="none" stroke="#f53b49" stroke-width="3.5556" stroke-miterlimit="4" stroke-linecap="butt" stroke-linejoin="miter" style="stroke: var(--color4, #f53b49)" d="M30.090 16c0 7.782-6.308 14.090-14.090 14.090s-14.090-6.308-14.090-14.090c0-7.782 6.308-14.090 14.090-14.090s14.090 6.308 14.090 14.090z"></path>
</symbol>
<symbol id="icon-GreenCircle" viewBox="0 0 32 32">
<path fill="#2fc509" style="fill: var(--color3, #2fc509)" d="M31.999 16c0 8.836-7.163 15.999-15.999 15.999s-15.999-7.163-15.999-15.999c0-8.836 7.163-15.999 15.999-15.999s15.999 7.163 15.999 15.999z"></path>
</symbol>
<symbol id="icon-select-triangle" viewBox="0 0 38 32">
<path fill="#858fa4" style="fill: var(--color2, #858fa4)" d="M22.667 30c-1.54 2.667-5.388 2.667-6.928 0l-13.856-23.999c-1.54-2.667 0.385-6 3.464-6h27.712c3.079 0 5.004 3.333 3.464 6l-13.856 23.999z"></path>
</symbol>
<symbol id="icon-menu" viewBox="0 0 32 32">
<path fill="#fff" style="fill: var(--color1, #fff)" d="M6.667 0h-5.333c-0.736 0-1.333 0.597-1.333 1.333v5.333c0 0.736 0.597 1.333 1.333 1.333h5.333c0.736 0 1.333-0.597 1.333-1.333v-5.333c0-0.736-0.597-1.333-1.333-1.333z"></path>
<path fill="#fff" style="fill: var(--color1, #fff)" d="M6.667 12h-5.333c-0.736 0-1.333 0.597-1.333 1.333v5.333c0 0.736 0.597 1.333 1.333 1.333h5.333c0.736 0 1.333-0.597 1.333-1.333v-5.333c0-0.736-0.597-1.333-1.333-1.333z"></path>
<path fill="#fff" style="fill: var(--color1, #fff)" d="M6.667 24h-5.333c-0.736 0-1.333 0.597-1.333 1.333v5.333c0 0.736 0.597 1.333 1.333 1.333h5.333c0.736 0 1.333-0.597 1.333-1.333v-5.333c0-0.736-0.597-1.333-1.333-1.333z"></path>
<path fill="#fff" style="fill: var(--color1, #fff)" d="M18.667 0h-5.333c-0.736 0-1.333 0.597-1.333 1.333v5.333c0 0.736 0.597 1.333 1.333 1.333h5.333c0.736 0 1.333-0.597 1.333-1.333v-5.333c0-0.736-0.597-1.333-1.333-1.333z"></path>
<path fill="#fff" style="fill: var(--color1, #fff)" d="M18.667 12h-5.333c-0.736 0-1.333 0.597-1.333 1.333v5.333c0 0.736 0.597 1.333 1.333 1.333h5.333c0.736 0 1.333-0.597 1.333-1.333v-5.333c0-0.736-0.597-1.333-1.333-1.333z"></path>
<path fill="#fff" style="fill: var(--color1, #fff)" d="M18.667 24h-5.333c-0.736 0-1.333 0.597-1.333 1.333v5.333c0 0.736 0.597 1.333 1.333 1.333h5.333c0.736 0 1.333-0.597 1.333-1.333v-5.333c0-0.736-0.597-1.333-1.333-1.333z"></path>
<path fill="#fff" style="fill: var(--color1, #fff)" d="M30.667 0h-5.333c-0.736 0-1.333 0.597-1.333 1.333v5.333c0 0.736 0.597 1.333 1.333 1.333h5.333c0.736 0 1.333-0.597 1.333-1.333v-5.333c0-0.736-0.597-1.333-1.333-1.333z"></path>
<path fill="#fff" style="fill: var(--color1, #fff)" d="M30.667 12h-5.333c-0.736 0-1.333 0.597-1.333 1.333v5.333c0 0.736 0.597 1.333 1.333 1.333h5.333c0.736 0 1.333-0.597 1.333-1.333v-5.333c0-0.736-0.597-1.333-1.333-1.333z"></path>
<path fill="#fff" style="fill: var(--color1, #fff)" d="M30.667 24h-5.333c-0.736 0-1.333 0.597-1.333 1.333v5.333c0 0.736 0.597 1.333 1.333 1.333h5.333c0.736 0 1.333-0.597 1.333-1.333v-5.333c0-0.736-0.597-1.333-1.333-1.333z"></path>
</symbol>
<symbol id="icon-search" viewBox="0 0 32 32">
<path fill="#858fa4" opacity="0.7" style="fill: var(--color2, #858fa4)" d="M18.315 27.368c-3.036-0.001-5.985-1.017-8.377-2.887l-7.52 7.519-2.419-2.419 7.52-7.519c-1.871-2.392-2.888-5.341-2.889-8.378 0-7.545 6.139-13.684 13.685-13.684s13.685 6.139 13.685 13.684c0 7.545-6.139 13.684-13.685 13.684zM18.315 3.421c-5.66 0-10.264 4.603-10.264 10.263s4.603 10.263 10.264 10.263c5.66 0 10.264-4.603 10.264-10.263s-4.603-10.263-10.264-10.263z"></path>
</symbol>
<symbol id="icon-compare" viewBox="0 0 45 32">
<path fill="#fff" opacity="0.7" style="fill: var(--color1, #fff)" d="M3.752 20.506c0.635 0 1.149 0.515 1.149 1.149v9.195c0 0.635-0.515 1.149-1.149 1.149s-1.149-0.515-1.149-1.149v-9.195c0-0.635 0.515-1.149 1.149-1.149z"></path>
<path fill="#fff" opacity="0.7" style="fill: var(--color1, #fff)" d="M9.499 12.46c0.635 0 1.149 0.515 1.149 1.149v17.241c0 0.635-0.515 1.149-1.149 1.149s-1.149-0.515-1.149-1.149v-17.241c0-0.635 0.515-1.149 1.149-1.149z"></path>
<path fill="#fff" opacity="0.7" style="fill: var(--color1, #fff)" d="M15.246 20.506c0.635 0 1.149 0.515 1.149 1.149v9.195c0 0.635-0.515 1.149-1.149 1.149s-1.149-0.515-1.149-1.149v-9.195c0-0.635 0.515-1.149 1.149-1.149z"></path>
<path fill="#fff" opacity="0.7" style="fill: var(--color1, #fff)" d="M20.993 17.058c0.635 0 1.149 0.515 1.149 1.149v12.643c0 0.635-0.515 1.149-1.149 1.149s-1.149-0.515-1.149-1.149v-12.643c0-0.635 0.515-1.149 1.149-1.149z"></path>
<path fill="#f53b49" stroke="#1a1a25" stroke-width="2.2069" stroke-miterlimit="4" stroke-linecap="butt" stroke-linejoin="miter" style="fill: var(--color4, #f53b49); stroke: var(--color7, #1a1a25)" d="M38.234 14.759c0 5.713-4.631 10.344-10.344 10.344s-10.344-4.631-10.344-10.344c0-5.713 4.631-10.344 10.344-10.344s10.344 4.631 10.344 10.344z"></path>
<path fill="#fff" style="fill: var(--color1, #fff)" d="M25.525 10.997h-1.012l-2.090 1.388v1.029l2.041-1.355h0.049v7.298h1.012v-8.359zM30.542 19.471c1.592 0 2.759-1.175 2.759-2.775 0-1.62-1.127-2.808-2.661-2.808-0.563 0-1.11 0.2-1.453 0.473h-0.049l0.294-2.465h3.494v-0.898h-4.343l-0.506 4.114 0.947 0.114c0.347-0.249 0.939-0.429 1.453-0.425 1.065 0.008 1.845 0.816 1.845 1.91 0 1.073-0.751 1.861-1.78 1.861-0.857 0-1.539-0.551-1.616-1.306h-0.98c0.061 1.274 1.159 2.204 2.596 2.204z"></path>
</symbol>
<symbol id="icon-like" viewBox="0 0 44 32">
<path fill="#fff" opacity="0.7" style="fill: var(--color1, #fff)" d="M25.888 12.491c-2.826-2.825-7.423-2.825-10.248 0l-0.656 0.656-0.656-0.656c-2.825-2.826-7.423-2.826-10.248 0-2.768 2.768-2.786 7.155-0.042 10.206 2.503 2.781 9.884 8.79 10.198 9.044 0.213 0.173 0.469 0.257 0.723 0.257 0.008 0 0.017 0 0.025-0 0.263 0.012 0.528-0.078 0.748-0.257 0.313-0.254 7.696-6.263 10.199-9.045 2.744-3.050 2.726-7.437-0.042-10.205zM24.225 21.162c-1.951 2.168-7.315 6.639-9.241 8.226-1.926-1.586-7.289-6.057-9.24-8.225-1.914-2.128-1.932-5.158-0.042-7.048 0.966-0.965 2.234-1.448 3.502-1.448s2.536 0.483 3.502 1.448l1.442 1.442c0.172 0.172 0.388 0.274 0.615 0.31 0.369 0.079 0.769-0.024 1.055-0.31l1.443-1.443c1.932-1.931 5.073-1.93 7.004 0 1.891 1.891 1.873 4.921-0.041 7.048z"></path>
<path fill="#f53b49" stroke="#1a1a25" stroke-width="2.2069" stroke-miterlimit="4" stroke-linecap="butt" stroke-linejoin="miter" style="fill: var(--color4, #f53b49); stroke: var(--color7, #1a1a25)" d="M37.72 14.158c0 5.382-4.363 9.744-9.744 9.744s-9.744-4.363-9.744-9.744c0-5.382 4.363-9.744 9.744-9.744s9.744 4.363 9.744 9.744z"></path>
<path fill="#fff" style="fill: var(--color1, #fff)" d="M25.749 10.615h-0.953l-1.969 1.307v0.969l1.922-1.276h0.046v6.874h0.953v-7.874zM30.475 18.596c1.499 0 2.599-1.107 2.599-2.614 0-1.526-1.061-2.645-2.507-2.645-0.531 0-1.046 0.188-1.369 0.446h-0.046l0.277-2.322h3.291v-0.846h-4.091l-0.477 3.876 0.892 0.108c0.327-0.235 0.884-0.404 1.369-0.4 1.003 0.008 1.738 0.769 1.738 1.799 0 1.011-0.707 1.753-1.676 1.753-0.807 0-1.449-0.519-1.523-1.23h-0.923c0.058 1.2 1.092 2.076 2.445 2.076z"></path>
</symbol>
<symbol id="icon-cart" viewBox="0 0 40 32">
<path fill="none" opacity="0.7" stroke="#fff" stroke-width="1.9862" stroke-miterlimit="4" stroke-linecap="butt" stroke-linejoin="miter" style="stroke: var(--color1, #fff)" d="M4.054 11.501h18.812v13.488c0 1.677-1.36 3.037-3.037 3.037h-12.737c-1.677 0-3.037-1.36-3.037-3.037v-13.488z"></path>
<path fill="none" opacity="0.7" stroke="#fff" stroke-width="1.9862" stroke-miterlimit="4" stroke-linecap="butt" stroke-linejoin="miter" style="stroke: var(--color1, #fff)" d="M8.888 16.335v-7.512c0-2.165 1.755-3.919 3.919-3.919h1.306c2.164 0 3.919 1.755 3.919 3.919v7.512"></path>
<path fill="#f53b49" stroke="#1a1a25" stroke-width="2.2069" stroke-miterlimit="4" stroke-linecap="butt" stroke-linejoin="miter" style="fill: var(--color4, #f53b49); stroke: var(--color7, #1a1a25)" d="M35.505 13.232c0 4.87-3.948 8.818-8.818 8.818s-8.818-3.948-8.818-8.818c0-4.87 3.948-8.818 8.818-8.818s8.818 3.948 8.818 8.818z"></path>
<path fill="#fff" style="fill: var(--color1, #fff)" d="M27.652 10.026h-0.863l-1.781 1.183v0.877l1.74-1.155h0.042v6.221h0.863v-7.126z"></path>
</symbol>
<symbol id="icon-login" viewBox="0 0 30 32">
<path fill="#858fa4" opacity="0.7" style="fill: var(--color2, #858fa4)" d="M15.238 0.763c-8.415 0-15.238 6.822-15.238 15.237s6.823 15.238 15.238 15.238c8.416 0 15.238-6.822 15.238-15.238s-6.822-15.237-15.238-15.237zM15.238 5.32c2.784 0 5.041 2.257 5.041 5.040s-2.256 5.040-5.041 5.040c-2.783 0-5.039-2.256-5.039-5.040s2.256-5.040 5.039-5.040zM15.235 27.254c-2.777 0-5.321-1.011-7.282-2.685-0.478-0.408-0.754-1.005-0.754-1.632 0-2.823 2.284-5.082 5.108-5.082h5.865c2.824 0 5.1 2.259 5.1 5.082 0 0.628-0.274 1.224-0.753 1.632-1.961 1.675-4.505 2.686-7.283 2.686z"></path>
</symbol>
<symbol id="icon-BlankStar" viewBox="0 0 32 32">
  <path fill="none" stroke="#f99808" stroke-width="2.6667" stroke-miterlimit="4" stroke-linecap="butt" stroke-linejoin="miter" style="stroke: var(--color1, #f99808)" d="M16 3.214l4.503 7.938 8.941 1.83-6.157 6.736 1.022 9.069-8.309-3.774-8.309 3.774 1.022-9.069-6.157-6.736 8.941-1.83 4.503-7.938z"></path>
  </symbol>
  <symbol id="icon-arrow-right" viewBox="0 0 32 32">
<path fill="#fff" style="fill: var(--color1, #fff)" d="M31.999 16c0 8.836-7.163 15.999-15.999 15.999s-15.999-7.163-15.999-15.999c0-8.836 7.163-15.999 15.999-15.999s15.999 7.163 15.999 15.999z"></path>
<path fill="none" stroke="#f53b49" stroke-width="0.6667" stroke-miterlimit="4" stroke-linecap="round" stroke-linejoin="round" style="stroke: var(--color2, #f53b49)" d="M11.52 15.68h8.319M19.84 15.68l-3.471-3.52M19.84 15.68l-3.471 3.52"></path>
</symbol>
<symbol id="icon-arrow-left" viewBox="0 0 32 32">
  <path fill="#fff" style="fill: var(--color1, #fff)" d="M31.999 16c0 8.836-7.163 15.999-15.999 15.999s-15.999-7.163-15.999-15.999c0-8.836 7.163-15.999 15.999-15.999s15.999 7.163 15.999 15.999z"></path>
  <path fill="none" stroke="#f53b49" stroke-width="0.6667" stroke-miterlimit="4" stroke-linecap="round" stroke-linejoin="round" style="stroke: var(--color2, #f53b49)" d="M19.84 15.68h-8.32M11.52 15.68l3.472-3.52M11.52 15.68l3.472 3.52"></path>
  </symbol>
</defs>
</svg>
