<!-- Generated by IcoMoon.io -->
<svg version="1.1" xmlns="http://www.w3.org/2000/svg" width="32" height="32" viewBox="0 0 32 32">
<path d="M29.798 7.896c-0.128-0.218-0.408-0.29-0.626-0.162s-0.29 0.408-0.162 0.626c1.358 2.306 2.075 4.949 2.075 7.64 0 8.318-6.767 15.085-15.085 15.085s-15.085-6.767-15.085-15.085c0-8.318 6.767-15.085 15.085-15.085 4.682 0 9.020 2.12 11.903 5.817 0.155 0.199 0.443 0.235 0.642 0.079s0.235-0.443 0.079-0.642c-1.464-1.878-3.361-3.432-5.486-4.492-2.228-1.113-4.63-1.677-7.138-1.677-4.274 0-8.291 1.664-11.313 4.686s-4.686 7.040-4.686 11.313 1.664 8.291 4.686 11.313c3.022 3.022 7.040 4.686 11.313 4.686s8.291-1.664 11.313-4.686c3.022-3.022 4.686-7.040 4.686-11.313 0-2.855-0.761-5.657-2.202-8.104z"></path>
<path d="M20.031 26.997c-1.73-0.257-3.35-1.027-4.71-2.117-2.82-2.105-5.355-4.573-7.535-7.335-0.157-0.198-0.444-0.232-0.642-0.076s-0.232 0.444-0.076 0.642c2.229 2.825 4.822 5.349 7.706 7.501 1.701 1.344 3.802 2.291 5.99 2.354 1.517 0 2.997-0.601 4.083-1.687l1.787-1.787c0.571-0.571 0.571-1.499 0-2.070l-1.753-1.753c-0.179-0.179-0.468-0.179-0.647 0s-0.179 0.468 0 0.647l1.753 1.753c0.213 0.204 0.213 0.572 0 0.776l-0.558 0.558-4.383-4.383 0.472-0.571c0.195-0.247 0.594-0.266 0.811-0.038l0.436 0.436c0.178 0.179 0.468 0.179 0.647 0s0.179-0.468-0-0.647l-0.436-0.436c-0.291-0.291-0.692-0.446-1.104-0.427s-0.796 0.212-1.059 0.529l-2.148 2.595c-0.016 0.019-0.044 0.022-0.063 0.007l-1.153-0.874c-2.281-1.728-4.314-3.761-6.042-6.042l-0.874-1.153c-0.015-0.020-0.012-0.047 0.007-0.063l2.595-2.148c0.317-0.262 0.509-0.648 0.529-1.059s-0.136-0.813-0.427-1.104l-3.658-3.658c-0.276-0.276-0.644-0.429-1.035-0.429s-0.759 0.152-1.035 0.429l-1.787 1.787c-1.294 1.294-1.9 3.147-1.621 4.955 0.237 1.534 0.823 3.023 1.696 4.307 0.142 0.209 0.426 0.263 0.635 0.121s0.263-0.426 0.121-0.635c-0.796-1.172-1.332-2.532-1.548-3.932-0.235-1.522 0.275-3.080 1.363-4.169l0.582-0.582 4.322 4.322-1.317 1.090c-0.397 0.329-0.465 0.909-0.153 1.32 2.265 3.184 5.062 5.981 8.246 8.245 0.408 0.31 0.989 0.246 1.32-0.153l1.090-1.317 4.322 4.322-0.582 0.582c-1.089 1.089-2.647 1.598-4.169 1.363zM7.6 6.576l0.558-0.558c0.214-0.214 0.562-0.214 0.776 0l3.658 3.658c0.228 0.217 0.209 0.616-0.038 0.811l-0.571 0.472-4.383-4.383z"></path>
<path d="M24.616 16.181c0.242 0.048 0.489-0.114 0.535-0.363 0.493-2.572-0.317-5.211-2.166-7.061s-4.489-2.659-7.061-2.166c-0.248 0.048-0.411 0.287-0.363 0.535s0.288 0.41 0.535 0.363c2.274-0.436 4.607 0.28 6.242 1.915s2.35 3.968 1.915 6.242c-0.048 0.248 0.115 0.488 0.363 0.535z"></path>
<path d="M22.041 15.867c0.24 0.056 0.492-0.099 0.546-0.347 0.4-1.792-0.136-3.636-1.432-4.932s-3.141-1.832-4.933-1.432c-0.246 0.055-0.402 0.299-0.347 0.546s0.299 0.402 0.546 0.347c1.485-0.331 3.013 0.112 4.087 1.186s1.518 2.602 1.186 4.087c-0.055 0.246 0.1 0.491 0.347 0.546z"></path>
<path d="M19.335 15.528c0.232 0.084 0.5-0.039 0.583-0.279 0.342-0.969 0.093-2.065-0.633-2.791s-1.822-0.975-2.791-0.633c-0.238 0.084-0.363 0.345-0.279 0.583s0.345 0.363 0.583 0.279c0.639-0.225 1.362-0.062 1.84 0.417s0.643 1.201 0.417 1.841c-0.084 0.238 0.041 0.499 0.279 0.583z"></path>
</svg>
