<!-- Generated by IcoMoon.io -->
<svg version="1.1" xmlns="http://www.w3.org/2000/svg" width="40" height="32" viewBox="0 0 40 32">
<title>cart</title>
<path fill="none" opacity="0.7" stroke="#fff" stroke-width="1.9862" stroke-miterlimit="4" stroke-linecap="butt" stroke-linejoin="miter" d="M4.054 11.501h18.812v13.488c0 1.677-1.36 3.037-3.037 3.037h-12.737c-1.677 0-3.037-1.36-3.037-3.037v-13.488z"></path>
<path fill="none" opacity="0.7" stroke="#fff" stroke-width="1.9862" stroke-miterlimit="4" stroke-linecap="butt" stroke-linejoin="miter" d="M8.888 16.335v-7.512c0-2.165 1.755-3.919 3.919-3.919h1.306c2.164 0 3.919 1.755 3.919 3.919v7.512"></path>
<path fill="#f53b49" stroke="#1a1a25" stroke-width="2.2069" stroke-miterlimit="4" stroke-linecap="butt" stroke-linejoin="miter" d="M35.505 13.232c0 4.87-3.948 8.818-8.818 8.818s-8.818-3.948-8.818-8.818c0-4.87 3.948-8.818 8.818-8.818s8.818 3.948 8.818 8.818z"></path>
<path fill="#fff" d="M27.652 10.026h-0.863l-1.781 1.183v0.877l1.74-1.155h0.042v6.221h0.863v-7.126z"></path>
</svg>
