<!-- Generated by IcoMoon.io -->
<svg version="1.1" xmlns="http://www.w3.org/2000/svg" width="45" height="32" viewBox="0 0 45 32">
<title>compare</title>
<path fill="#fff" opacity="0.7" d="M3.752 20.506c0.635 0 1.149 0.515 1.149 1.149v9.195c0 0.635-0.515 1.149-1.149 1.149s-1.149-0.515-1.149-1.149v-9.195c0-0.635 0.515-1.149 1.149-1.149z"></path>
<path fill="#fff" opacity="0.7" d="M9.499 12.46c0.635 0 1.149 0.515 1.149 1.149v17.241c0 0.635-0.515 1.149-1.149 1.149s-1.149-0.515-1.149-1.149v-17.241c0-0.635 0.515-1.149 1.149-1.149z"></path>
<path fill="#fff" opacity="0.7" d="M15.246 20.506c0.635 0 1.149 0.515 1.149 1.149v9.195c0 0.635-0.515 1.149-1.149 1.149s-1.149-0.515-1.149-1.149v-9.195c0-0.635 0.515-1.149 1.149-1.149z"></path>
<path fill="#fff" opacity="0.7" d="M20.993 17.058c0.635 0 1.149 0.515 1.149 1.149v12.643c0 0.635-0.515 1.149-1.149 1.149s-1.149-0.515-1.149-1.149v-12.643c0-0.635 0.515-1.149 1.149-1.149z"></path>
<path fill="#f53b49" stroke="#1a1a25" stroke-width="2.2069" stroke-miterlimit="4" stroke-linecap="butt" stroke-linejoin="miter" d="M38.234 14.759c0 5.713-4.631 10.344-10.344 10.344s-10.344-4.631-10.344-10.344c0-5.713 4.631-10.344 10.344-10.344s10.344 4.631 10.344 10.344z"></path>
<path fill="#fff" d="M25.525 10.997h-1.012l-2.090 1.388v1.029l2.041-1.355h0.049v7.298h1.012v-8.359zM30.542 19.471c1.592 0 2.759-1.175 2.759-2.775 0-1.62-1.127-2.808-2.661-2.808-0.563 0-1.11 0.2-1.453 0.473h-0.049l0.294-2.465h3.494v-0.898h-4.343l-0.506 4.114 0.947 0.114c0.347-0.249 0.939-0.429 1.453-0.425 1.065 0.008 1.845 0.816 1.845 1.91 0 1.073-0.751 1.861-1.78 1.861-0.857 0-1.539-0.551-1.616-1.306h-0.98c0.061 1.274 1.159 2.204 2.596 2.204z"></path>
</svg>
