<!-- Generated by IcoMoon.io -->
<svg version="1.1" xmlns="http://www.w3.org/2000/svg" width="32" height="32" viewBox="0 0 32 32">
<title>Diagram</title>
<path fill="#858fa4" d="M1.882 13.176c1.040 0 1.882 0.843 1.882 1.882v15.059c0 1.040-0.843 1.882-1.882 1.882s-1.882-0.843-1.882-1.882v-15.059c0-1.040 0.843-1.882 1.882-1.882z"></path>
<path fill="#858fa4" d="M11.294-0c1.040 0 1.882 0.843 1.882 1.882v28.235c0 1.040-0.843 1.882-1.882 1.882s-1.882-0.843-1.882-1.882v-28.235c0-1.040 0.843-1.882 1.882-1.882z"></path>
<path fill="#858fa4" d="M20.706 13.176c1.040 0 1.882 0.843 1.882 1.882v15.059c0 1.040-0.843 1.882-1.882 1.882s-1.882-0.843-1.882-1.882v-15.059c0-1.040 0.843-1.882 1.882-1.882z"></path>
<path fill="#858fa4" d="M30.118 7.529c1.040 0 1.882 0.843 1.882 1.882v20.706c0 1.040-0.843 1.882-1.882 1.882s-1.882-0.843-1.882-1.882v-20.706c0-1.040 0.843-1.882 1.882-1.882z"></path>
</svg>
