<!-- Generated by IcoMoon.io -->
<svg version="1.1" xmlns="http://www.w3.org/2000/svg" width="32" height="32" viewBox="0 0 32 32">
<title>Discount</title>
<path fill="#f53b49" d="M32 16c0 8.837-7.163 16-16 16s-16-7.163-16-16c0-8.837 7.163-16 16-16s16 7.163 16 16z"></path>
<path fill="#fff" d="M12.626 14.85c-0.405 0-0.784-0.064-1.136-0.192-0.341-0.139-0.64-0.32-0.896-0.544s-0.459-0.491-0.608-0.8c-0.139-0.309-0.208-0.64-0.208-0.992s0.069-0.683 0.208-0.992c0.149-0.309 0.352-0.576 0.608-0.8s0.555-0.4 0.896-0.528c0.352-0.139 0.731-0.208 1.136-0.208 0.395 0 0.763 0.069 1.104 0.208 0.352 0.128 0.656 0.304 0.912 0.528s0.459 0.491 0.608 0.8c0.149 0.309 0.224 0.64 0.224 0.992s-0.075 0.683-0.224 0.992c-0.149 0.309-0.352 0.576-0.608 0.8s-0.56 0.405-0.912 0.544c-0.341 0.128-0.709 0.192-1.104 0.192zM12.626 13.41c0.213 0 0.395-0.107 0.544-0.32s0.224-0.469 0.224-0.768c0-0.299-0.075-0.555-0.224-0.768s-0.331-0.32-0.544-0.32c-0.213 0-0.395 0.107-0.544 0.32s-0.224 0.469-0.224 0.768c0 0.299 0.075 0.555 0.224 0.768s0.331 0.32 0.544 0.32zM19.49 21.474c-0.405 0-0.784-0.064-1.136-0.192-0.341-0.139-0.64-0.32-0.896-0.544s-0.459-0.491-0.608-0.8c-0.139-0.309-0.208-0.64-0.208-0.992s0.069-0.683 0.208-0.992c0.149-0.309 0.352-0.576 0.608-0.8s0.555-0.4 0.896-0.528c0.352-0.139 0.731-0.208 1.136-0.208 0.395 0 0.763 0.069 1.104 0.208 0.352 0.128 0.656 0.304 0.912 0.528s0.459 0.491 0.608 0.8c0.149 0.309 0.224 0.64 0.224 0.992s-0.075 0.683-0.224 0.992c-0.149 0.309-0.352 0.576-0.608 0.8s-0.56 0.405-0.912 0.544c-0.341 0.128-0.709 0.192-1.104 0.192zM19.49 20.034c0.213 0 0.395-0.107 0.544-0.32s0.224-0.469 0.224-0.768c0-0.299-0.075-0.555-0.224-0.768s-0.331-0.32-0.544-0.32c-0.213 0-0.395 0.107-0.544 0.32s-0.224 0.469-0.224 0.768c0 0.299 0.075 0.555 0.224 0.768s0.331 0.32 0.544 0.32zM11.122 20.274l4.528-5.104 4.016-5.392 1.328 1.2-4.336 4.944-4.208 5.552-1.328-1.2z"></path>
</svg>
