<!-- Generated by IcoMoon.io -->
<svg version="1.1" xmlns="http://www.w3.org/2000/svg" width="32" height="32" viewBox="0 0 32 32">
<title>Heart</title>
<path fill="#858fa4" d="M29.429 5.293c-3.48-3.479-9.142-3.479-12.621 0l-0.808 0.808-0.808-0.808c-3.479-3.48-9.141-3.48-12.62 0-3.409 3.409-3.431 8.812-0.051 12.568 3.082 3.425 12.173 10.825 12.558 11.138 0.262 0.213 0.577 0.317 0.89 0.317 0.010 0 0.021 0 0.031-0 0.324 0.015 0.65-0.096 0.921-0.316 0.386-0.313 9.477-7.713 12.56-11.138 3.379-3.756 3.357-9.159-0.051-12.568zM27.38 15.971c-2.403 2.67-9.009 8.176-11.381 10.13-2.372-1.953-8.976-7.459-11.379-10.129-2.357-2.62-2.38-6.352-0.051-8.68 1.189-1.189 2.751-1.783 4.312-1.783s3.123 0.594 4.312 1.783l1.776 1.776c0.211 0.211 0.478 0.338 0.758 0.382 0.454 0.097 0.947-0.029 1.3-0.381l1.777-1.777c2.379-2.378 6.248-2.377 8.625 0 2.328 2.328 2.306 6.060-0.050 8.68z"></path>
</svg>
