<!-- Generated by IcoMoon.io -->
<svg version="1.1" xmlns="http://www.w3.org/2000/svg" width="32" height="32" viewBox="0 0 32 32">
<path d="M31.241 19.496c-0.445-0.416-1.026-0.645-1.635-0.645-0.649 0-1.257 0.255-1.711 0.718l-3.064 3.124h-4.499c0.316-0.42 0.48-0.931 0.465-1.467-0.035-1.254-1.101-2.274-2.378-2.274h-5.213c-0.45 0-0.887 0.093-1.3 0.277l-3.801 1.696h-1.725v-0.415c0-0.259-0.21-0.469-0.469-0.469h-1.946c-0.259 0-0.469 0.21-0.469 0.469s0.21 0.469 0.469 0.469h1.478v10.083h-4.505v-10.083h0.84c0.259 0 0.469-0.21 0.469-0.469s-0.21-0.469-0.469-0.469h-1.309c-0.259 0-0.469 0.21-0.469 0.469v11.021c0 0.259 0.21 0.469 0.469 0.469h5.442c0.259 0 0.469-0.21 0.469-0.469v-0.144h5.023c0.589 0 1.177-0.072 1.748-0.213l7.767-1.923c0.251-0.062 0.405-0.316 0.342-0.568s-0.316-0.405-0.568-0.342l-7.767 1.923c-0.497 0.123-1.010 0.186-1.522 0.186h-5.023v-8.587h1.824c0.066 0 0.131-0.014 0.191-0.041l3.892-1.736c0.292-0.13 0.6-0.196 0.918-0.196h5.213c0.774 0 1.42 0.611 1.441 1.362 0.010 0.383-0.13 0.744-0.397 1.017s-1.008 0.424-1.010 0.424h-3.564c-0.259 0-0.469 0.21-0.469 0.469s0.21 0.469 0.469 0.469l10.138-0c0.126 0 0.247-0.051 0.335-0.141l3.202-3.265c0.276-0.282 0.646-0.437 1.042-0.437 0.371 0 0.724 0.139 0.995 0.392 0.587 0.549 0.619 1.473 0.071 2.060l-3.116 3.339c-0.839 0.902-1.915 1.535-3.112 1.832l-1.626 0.402c-0.251 0.062-0.405 0.316-0.342 0.568 0.053 0.213 0.244 0.356 0.455 0.356 0.037 0 0.075-0.004 0.113-0.014l1.626-0.402c1.375-0.34 2.611-1.068 3.573-2.103l3.116-3.338c0.901-0.965 0.849-2.483-0.116-3.385z"></path>
<path d="M19.157 17.857c4.923 0 8.929-4.005 8.929-8.929 0-2.060-0.721-4.072-2.031-5.663-0.164-0.2-0.46-0.229-0.66-0.064s-0.229 0.46-0.064 0.66c1.172 1.424 1.818 3.224 1.818 5.068 0 4.406-3.585 7.991-7.991 7.991s-7.991-3.585-7.991-7.991c0-4.407 3.585-7.991 7.991-7.991 1.688 0 3.304 0.522 4.671 1.511 0.21 0.152 0.503 0.105 0.654-0.105s0.105-0.503-0.105-0.655c-1.528-1.105-3.333-1.689-5.22-1.689-4.923 0-8.929 4.005-8.929 8.929s4.005 8.929 8.929 8.929z"></path>
<path d="M22.759 3.402l-1.561 0.961c-0.083-0.037-0.167-0.072-0.252-0.105l-0.424-1.783c-0.050-0.211-0.239-0.36-0.456-0.36h-1.813c-0.217 0-0.406 0.149-0.456 0.36l-0.424 1.783c-0.085 0.033-0.169 0.067-0.252 0.105l-1.561-0.961c-0.185-0.114-0.424-0.086-0.577 0.068l-1.282 1.282c-0.153 0.154-0.181 0.392-0.068 0.577l0.961 1.561c-0.037 0.083-0.072 0.167-0.105 0.252l-1.783 0.424c-0.211 0.050-0.36 0.239-0.36 0.456v1.813c0 0.217 0.149 0.406 0.36 0.456l1.783 0.424c0.032 0.085 0.068 0.169 0.105 0.252l-0.961 1.561c-0.114 0.185-0.086 0.424 0.068 0.577l1.282 1.282c0.153 0.153 0.392 0.181 0.577 0.068l1.561-0.961c0.083 0.037 0.167 0.072 0.252 0.105l0.424 1.783c0.050 0.211 0.239 0.36 0.456 0.36h1.813c0.217 0 0.406-0.149 0.456-0.36l0.424-1.783c0.085-0.033 0.169-0.067 0.252-0.105l1.561 0.961c0.185 0.114 0.424 0.086 0.577-0.068l1.282-1.282c0.154-0.153 0.181-0.392 0.068-0.577l-0.961-1.561c0.037-0.083 0.072-0.168 0.105-0.252l1.783-0.424c0.211-0.050 0.36-0.239 0.36-0.456v-1.813c0-0.217-0.149-0.406-0.36-0.456l-1.783-0.424c-0.033-0.085-0.067-0.169-0.105-0.252l0.961-1.561c0.114-0.185 0.086-0.424-0.068-0.577l-1.282-1.282c-0.153-0.153-0.392-0.181-0.577-0.068zM22.775 7.076c0.101 0.196 0.186 0.4 0.252 0.607 0.050 0.156 0.178 0.274 0.338 0.312l1.671 0.398v1.072l-1.671 0.398c-0.159 0.038-0.287 0.156-0.338 0.312-0.066 0.206-0.151 0.41-0.252 0.607-0.075 0.146-0.068 0.32 0.018 0.46l0.901 1.463-0.758 0.758-1.463-0.901c-0.14-0.086-0.314-0.093-0.46-0.018-0.196 0.101-0.4 0.185-0.607 0.252-0.156 0.050-0.274 0.178-0.312 0.338l-0.398 1.671h-1.072l-0.398-1.671c-0.038-0.159-0.156-0.287-0.312-0.338-0.207-0.066-0.411-0.151-0.607-0.252-0.146-0.075-0.32-0.068-0.46 0.018l-1.463 0.901-0.758-0.758 0.901-1.463c0.086-0.14 0.093-0.314 0.018-0.46-0.101-0.196-0.186-0.4-0.252-0.607-0.050-0.156-0.178-0.274-0.338-0.312l-1.671-0.398v-1.072l1.671-0.398c0.159-0.038 0.287-0.156 0.338-0.312 0.066-0.206 0.151-0.41 0.252-0.607 0.075-0.146 0.068-0.32-0.018-0.46l-0.9-1.463 0.758-0.758 1.463 0.901c0.14 0.086 0.314 0.093 0.46 0.018 0.196-0.101 0.4-0.186 0.607-0.252 0.156-0.050 0.274-0.178 0.312-0.338l0.398-1.671h1.072l0.398 1.671c0.038 0.159 0.156 0.287 0.312 0.338 0.206 0.066 0.41 0.151 0.607 0.252 0.146 0.075 0.32 0.068 0.46-0.018l1.463-0.901 0.758 0.758-0.901 1.463c-0.086 0.14-0.093 0.314-0.018 0.46z"></path>
<path d="M19.158 6.647c-1.258 0-2.282 1.024-2.282 2.282s1.024 2.282 2.282 2.282 2.282-1.024 2.282-2.282c0-1.258-1.023-2.282-2.282-2.282zM19.158 10.273c-0.741 0-1.344-0.603-1.344-1.344s0.603-1.344 1.344-1.344c0.741 0 1.344 0.603 1.344 1.344s-0.603 1.344-1.344 1.344z"></path>
</svg>
