<!-- Generated by IcoMoon.io -->
<svg version="1.1" xmlns="http://www.w3.org/2000/svg" width="32" height="32" viewBox="0 0 32 32">
<title>instagram</title>
<path fill="#909cb5" d="M15.995 10.665c-2.938 0-5.335 2.398-5.335 5.335s2.398 5.335 5.335 5.335c2.938 0 5.335-2.397 5.335-5.335s-2.398-5.335-5.335-5.335zM31.998 16c0-2.209 0.020-4.399-0.104-6.604-0.124-2.562-0.708-4.835-2.582-6.708-1.877-1.877-4.147-2.458-6.708-2.582-2.209-0.124-4.399-0.104-6.604-0.104-2.209 0-4.399-0.020-6.604 0.104-2.562 0.124-4.835 0.708-6.708 2.582-1.877 1.877-2.458 4.147-2.582 6.708-0.124 2.209-0.104 4.399-0.104 6.604s-0.020 4.399 0.104 6.604c0.124 2.562 0.708 4.835 2.582 6.708 1.877 1.877 4.147 2.457 6.708 2.582 2.209 0.124 4.399 0.104 6.604 0.104 2.209 0 4.399 0.020 6.604-0.104 2.562-0.124 4.835-0.708 6.708-2.582 1.877-1.877 2.457-4.147 2.582-6.708 0.128-2.205 0.104-4.395 0.104-6.604zM15.995 24.209c-4.543 0-8.209-3.666-8.209-8.209s3.666-8.209 8.209-8.209c4.543 0 8.209 3.666 8.209 8.209s-3.666 8.209-8.209 8.209zM24.541 9.372c-1.061 0-1.917-0.857-1.917-1.917s0.857-1.917 1.917-1.917c1.061 0 1.917 0.857 1.917 1.917 0 0.252-0.049 0.501-0.145 0.734s-0.237 0.444-0.416 0.622c-0.178 0.178-0.39 0.319-0.622 0.416s-0.482 0.146-0.734 0.145z"></path>
</svg>
