<!-- Generated by IcoMoon.io -->
<svg version="1.1" xmlns="http://www.w3.org/2000/svg" width="44" height="32" viewBox="0 0 44 32">
<title>like</title>
<path fill="#fff" opacity="0.7" d="M25.888 12.491c-2.826-2.825-7.423-2.825-10.248 0l-0.656 0.656-0.656-0.656c-2.825-2.826-7.423-2.826-10.248 0-2.768 2.768-2.786 7.155-0.042 10.206 2.503 2.781 9.884 8.79 10.198 9.044 0.213 0.173 0.469 0.257 0.723 0.257 0.008 0 0.017 0 0.025-0 0.263 0.012 0.528-0.078 0.748-0.257 0.313-0.254 7.696-6.263 10.199-9.045 2.744-3.050 2.726-7.437-0.042-10.205zM24.225 21.162c-1.951 2.168-7.315 6.639-9.241 8.226-1.926-1.586-7.289-6.057-9.24-8.225-1.914-2.128-1.932-5.158-0.042-7.048 0.966-0.965 2.234-1.448 3.502-1.448s2.536 0.483 3.502 1.448l1.442 1.442c0.172 0.172 0.388 0.274 0.615 0.31 0.369 0.079 0.769-0.024 1.055-0.31l1.443-1.443c1.932-1.931 5.073-1.93 7.004 0 1.891 1.891 1.873 4.921-0.041 7.048z"></path>
<path fill="#f53b49" stroke="#1a1a25" stroke-width="2.2069" stroke-miterlimit="4" stroke-linecap="butt" stroke-linejoin="miter" d="M37.72 14.158c0 5.382-4.363 9.744-9.744 9.744s-9.744-4.363-9.744-9.744c0-5.382 4.363-9.744 9.744-9.744s9.744 4.363 9.744 9.744z"></path>
<path fill="#fff" d="M25.749 10.615h-0.953l-1.969 1.307v0.969l1.922-1.276h0.046v6.874h0.953v-7.874zM30.475 18.596c1.499 0 2.599-1.107 2.599-2.614 0-1.526-1.061-2.645-2.507-2.645-0.531 0-1.046 0.188-1.369 0.446h-0.046l0.277-2.322h3.291v-0.846h-4.091l-0.477 3.876 0.892 0.108c0.327-0.235 0.884-0.404 1.369-0.4 1.003 0.008 1.738 0.769 1.738 1.799 0 1.011-0.707 1.753-1.676 1.753-0.807 0-1.449-0.519-1.523-1.23h-0.923c0.058 1.2 1.092 2.076 2.445 2.076z"></path>
</svg>
