<!-- Generated by IcoMoon.io -->
<svg version="1.1" xmlns="http://www.w3.org/2000/svg" width="30" height="32" viewBox="0 0 30 32">
<title>login</title>
<path fill="#858fa4" opacity="0.7" d="M15.238 0.763c-8.415 0-15.238 6.822-15.238 15.237s6.823 15.238 15.238 15.238c8.416 0 15.238-6.822 15.238-15.238s-6.822-15.237-15.238-15.237zM15.238 5.32c2.784 0 5.041 2.257 5.041 5.040s-2.256 5.040-5.041 5.040c-2.783 0-5.039-2.256-5.039-5.040s2.256-5.040 5.039-5.040zM15.235 27.254c-2.777 0-5.321-1.011-7.282-2.685-0.478-0.408-0.754-1.005-0.754-1.632 0-2.823 2.284-5.082 5.108-5.082h5.865c2.824 0 5.1 2.259 5.1 5.082 0 0.628-0.274 1.224-0.753 1.632-1.961 1.675-4.505 2.686-7.283 2.686z"></path>
</svg>
