<!-- Generated by IcoMoon.io -->
<svg version="1.1" xmlns="http://www.w3.org/2000/svg" width="32" height="32" viewBox="0 0 32 32">
<title>mastercard</title>
<path fill="#858fa4" d="M31.999 16c0-5.213-4.232-9.496-9.496-9.496-2.271 0-4.335 0.774-5.987 2.116 1.239 1.187 2.219 2.684 2.684 4.387h-0.774c-0.516-1.497-1.342-2.838-2.477-3.922-1.135 1.084-1.961 2.426-2.477 3.922h-0.774c0.516-1.703 1.445-3.2 2.684-4.387-1.652-1.342-3.664-2.116-5.935-2.116-5.213 0-9.445 4.284-9.445 9.496s4.232 9.496 9.496 9.496c2.271 0 4.335-0.826 5.935-2.116-1.239-1.187-2.168-2.684-2.684-4.387h0.774c0.516 1.497 1.342 2.839 2.477 3.922 1.135-1.084 2.013-2.426 2.477-3.922h0.774c-0.516 1.703-1.445 3.2-2.684 4.387 1.652 1.342 3.716 2.116 5.987 2.116 5.213 0 9.445-4.284 9.445-9.496z"></path>
<path fill="#1a1a25" d="M25.030 18.219l0.671-3.51h0.826l0.103 0.361c0.155-0.155 0.413-0.361 0.929-0.361l-0.258 0.929c-0.258 0-0.671-0.052-0.981 0.981l-0.31 1.6h-0.981z"></path>
<path fill="#1a1a25" d="M12.384 13.832h0.929l-0.206 0.929h0.516l-0.155 0.723h-0.464l-0.258 1.393c-0.052 0.258 0 0.516 0.516 0.413l-0.103 0.774c-0.206 0.155-0.464 0.155-0.723 0.155-0.206 0-0.929-0.155-0.774-1.084l0.723-3.303z"></path>
<path fill="#1a1a25" d="M16.515 16.671c0.103-0.568 0.361-1.961-1.29-1.961-1.548 0-1.755 1.548-1.755 1.755-0.052 0.206-0.052 1.755 1.6 1.755 0.413 0 0.981-0.052 1.239-0.155l0.155-0.723c-0.155 0.052-0.671 0.103-1.084 0.103-0.361 0-0.981 0-0.877-0.774h2.013z"></path>
<path fill="#1a1a25" d="M11.459 15.535l0.206-0.723c-0.464-0.155-0.826-0.155-0.929-0.155-0.155 0-1.29 0-1.445 0.826-0.155 0.671 0.103 0.929 0.31 1.032 0.361 0.155 0.568 0.31 0.774 0.413 0.258 0.103 0.206 0.516-0.103 0.516-0.155 0-0.774 0.052-1.239-0.103l-0.155 0.723c0.464 0.103 0.774 0.103 1.135 0.103 0.258 0 1.393 0.052 1.548-0.981 0.103-0.516-0.155-0.723-0.31-0.877-0.206-0.103-0.464-0.31-0.671-0.361-0.206-0.103-0.361-0.413 0-0.516 0.155 0.052 0.619 0.052 0.877 0.103z"></path>
<path fill="#1a1a25" d="M5.264 18.219l0.826-4.232h-1.6l-1.135 2.58-0.206-2.581h-1.497l-0.826 4.232h0.929l0.619-3.045 0.258 3.045h0.877l1.342-2.993-0.568 2.993h0.981z"></path>
<path fill="#1a1a25" d="M6.346 14.813l-0.155 0.774c0.258 0 0.877-0.103 1.187-0.103s0.723-0.052 0.568 0.464c-0.258 0-1.961-0.258-2.219 1.239-0.103 0.723 0.516 1.084 0.981 1.084s0.619-0.103 0.774-0.206l0.103 0.206h0.877l0.361-1.91c0.103-0.465 0.258-1.6-1.342-1.6-0.206-0.052-0.516-0.052-1.135 0.052z"></path>
<path fill="#1a1a25" d="M21.78 14.968c-0.258-0.155-0.413-0.155-0.723-0.155s-1.032 0.31-1.135 1.135c-0.155 1.032 0.516 1.497 1.497 1.187l0.258 0.877c-0.31 0.155-0.619 0.206-1.135 0.206-0.981 0-2.064-0.877-1.6-2.684 0.361-1.29 1.497-1.806 2.168-1.755 0.774 0.052 1.084 0.31 1.29 0.568l-0.619 0.619z"></path>
<path fill="#1a1a25" d="M29.882 15.122c-0.206-0.155-0.31-0.413-0.723-0.413-0.516 0-1.342-0.103-1.806 1.497-0.31 1.084 0.31 2.013 0.981 2.013 0.31 0 0.619-0.155 0.826-0.258l0.103 0.258h1.032l0.826-4.439h-0.981l-0.258 1.342z"></path>
<path fill="#1a1a25" d="M22.452 14.813l-0.155 0.774c0.258 0 0.877-0.103 1.187-0.103s0.671-0.052 0.568 0.464c-0.258 0-1.961-0.258-2.219 1.239-0.103 0.723 0.516 1.084 0.981 1.084s0.619-0.103 0.774-0.206l0.103 0.206h0.877l0.361-1.91c0.103-0.465 0.258-1.6-1.342-1.6-0.155-0.052-0.516-0.052-1.135 0.052z"></path>
<path fill="#858fa4" d="M14.503 16h1.187c0.052-0.361-0.052-0.619-0.413-0.619-0.413 0-0.671 0.206-0.774 0.619z"></path>
<path fill="#858fa4" d="M7.794 16.671c-0.155 0-0.516-0.103-0.826 0.103s-0.413 0.568-0.052 0.671c0.31 0.103 0.723-0.103 0.826-0.413l0.052-0.361z"></path>
<path fill="#858fa4" d="M29.573 16.567c0.103-0.31 0.052-0.723-0.052-0.877-0.31-0.413-0.981-0.103-1.187 0.671-0.155 0.516 0.155 0.877 0.464 0.877 0.361 0 0.568-0.258 0.774-0.671z"></path>
<path fill="#858fa4" d="M23.946 16.671c-0.155 0-0.516-0.103-0.826 0.103s-0.413 0.568-0.052 0.671c0.31 0.103 0.774-0.103 0.826-0.413l0.052-0.361z"></path>
<path fill="#1a1a25" d="M16.515 18.219l0.671-3.458h0.826l0.103 0.361c0.155-0.155 0.413-0.361 0.929-0.361l-0.258 0.929c-0.206 0-0.671-0.052-0.981 0.981l-0.31 1.6h-0.981z"></path>
<path fill="#858fa4" d="M9.496 6.504c-4.18 0-7.742 2.735-8.98 6.503h12.283c0.516-1.703 1.445-3.2 2.684-4.387-1.703-1.29-3.768-2.116-5.987-2.116z"></path>
<path fill="#858fa4" d="M15.999 9.136c-1.135 1.084-1.961 2.374-2.477 3.922h4.955c-0.516-1.497-1.342-2.839-2.477-3.922z"></path>
<path fill="#858fa4" d="M22.502 6.504c-2.271 0-4.335 0.774-5.987 2.116 1.239 1.187 2.168 2.684 2.684 4.387h12.283c-1.187-3.768-4.748-6.503-8.98-6.503z"></path>
</svg>
