<!-- Generated by IcoMoon.io -->
<svg version="1.1" xmlns="http://www.w3.org/2000/svg" width="32" height="32" viewBox="0 0 32 32">
<title>New</title>
<path fill="#2fc509" d="M32 16c0 8.837-7.163 16-16 16s-16-7.163-16-16c0-8.837 7.163-16 16-16s16 7.163 16 16z"></path>
<path fill="#fff" d="M11.056 13.333h-1.931v3.722h-0.056l-2.528-3.722h-1.639v7.111h1.931v-3.736h0.042l2.569 3.736h1.611v-7.111zM11.969 20.444h5.111v-1.556h-3.181v-1.222h2.931v-1.556h-2.931v-1.222h3.195v-1.556h-5.125v7.111zM19.857 20.444h1.847l1.208-3.972h0.056l1.208 3.972h1.847l2.097-7.111h-2.153l-0.972 4.389h-0.056l-1.153-4.389h-1.694l-1.153 4.375h-0.056l-0.972-4.375h-2.153l2.097 7.111z"></path>
</svg>
