<!-- Generated by IcoMoon.io -->
<svg version="1.1" xmlns="http://www.w3.org/2000/svg" width="32" height="32" viewBox="0 0 32 32">
<title>paperPlane</title>
<path fill="#fff" d="M11.667 24.117v6.159c0 0.43 0.277 0.811 0.688 0.947 0.103 0.033 0.208 0.049 0.312 0.049 0.312 0 0.613-0.146 0.805-0.406l3.617-4.903-5.422-1.846z"></path>
<path fill="#fff" d="M31.579 0.912c-0.307-0.216-0.709-0.246-1.043-0.072l-29.998 15.604c-0.355 0.185-0.564 0.562-0.535 0.959 0.031 0.398 0.296 0.738 0.673 0.867l8.339 2.839 17.76-15.126-13.743 16.493 13.976 4.758c0.104 0.035 0.213 0.053 0.323 0.053 0.181 0 0.361-0.049 0.52-0.145 0.253-0.154 0.425-0.413 0.469-0.704l3.666-24.568c0.055-0.372-0.103-0.741-0.409-0.959z"></path>
</svg>
