<!-- Generated by IcoMoon.io -->
<svg version="1.1" xmlns="http://www.w3.org/2000/svg" width="32" height="32" viewBox="0 0 32 32">
<title>payment</title>
<path fill="#858fa4" d="M25.166 15.834l-2.841 2.567 2.566 2.839 2.841-2.567-2.566-2.84z"></path>
<path fill="#858fa4" d="M19.507 18.144l-3.789 3.411 3.413 3.791 3.789-3.411-3.413-3.791z"></path>
<path fill="#858fa4" d="M30.293 14.931l-1.893 1.706 1.706 1.893 1.893-1.706-1.706-1.893z"></path>
<path fill="#858fa4" d="M20.116 4.122l-2.844 2.56 2.56 2.844 2.844-2.56-2.56-2.844z"></path>
<path fill="#858fa4" d="M27.868 9.275l-1.889 1.707 1.708 1.891 1.889-1.707-1.708-1.891z"></path>
<path fill="#858fa4" d="M16.818 11.577l-3.793 3.414 3.413 3.791 3.793-3.414-3.413-3.791z"></path>
<path fill="#858fa4" d="M14.105 5.116l-3.791 3.413 3.412 3.791 3.791-3.413-3.412-3.791z"></path>
<path fill="#858fa4" d="M22.725 9.842l-2.837 2.561 2.566 2.842 2.837-2.561-2.566-2.842z"></path>
<path fill="#858fa4" d="M25.435 3.653l-1.893 1.706 1.706 1.893 1.893-1.706-1.706-1.893z"></path>
<path fill="#858fa4" d="M27.67 21.58l-2.843 2.562 2.563 2.845 2.843-2.562-2.563-2.845z"></path>
<path fill="#858fa4" d="M22.686 24.803l-3.706 3.417-6.256-6.962 1.74-1.531-4.38-4.904 1.75-1.534-4.446-4.899 6.938-6.246 2.203 2.412 3.72-3.32 2.199 2.279 1.466-1.313c-0.328-0.189-0.655-0.364-0.988-0.522-2.114-1.034-4.487-1.616-6.986-1.616-8.777 0-15.939 7.159-15.939 15.939 0 8.777 7.161 15.936 15.939 15.936 2.851 0 5.538-0.755 7.855-2.077 0.764-0.432 1.461-0.9 2.097-1.393l-3.206-3.664z"></path>
</svg>
