<!-- Generated by IcoMoon.io -->
<svg version="1.1" xmlns="http://www.w3.org/2000/svg" width="94" height="32" viewBox="0 0 94 32">
<title>paypal</title>
<path fill="#858fa4" d="M18.562 5.679c-0.339-0.68-0.875-1.241-1.541-1.662-0.694-0.425-1.514-0.723-2.451-0.9-0.953-0.173-2.054-0.251-3.33-0.263l-5.89 0.004c-0.612 0.008-1.212 0.485-1.356 1.077l-3.963 17.261c-0.144 0.583 0.24 1.072 0.853 1.072h2.821c0.612 0 1.218-0.475 1.354-1.072l0.968-4.191c0.129-0.583 0.733-1.070 1.352-1.070h0.807c3.449-0.004 6.12-0.709 8.039-2.12 1.929-1.413 2.88-3.281 2.88-5.594-0.002-1.013-0.168-1.863-0.542-2.541zM12.479 11.318c-0.853 0.625-2.038 0.937-3.566 0.937h-0.69c-0.614 0-0.99-0.485-0.857-1.076l0.848-3.665c0.119-0.588 0.738-1.074 1.344-1.070l0.925-0.006c1.079 0 1.902 0.187 2.453 0.549 0.544 0.357 0.818 0.927 0.814 1.68 0.016 1.146-0.421 2.028-1.27 2.652z"></path>
<path fill="#858fa4" d="M32.163 8.146c-1.064-0.6-2.745-0.9-5.042-0.9-1.136 0-2.268 0.088-3.412 0.265-0.844 0.129-0.927 0.154-1.446 0.267-1.073 0.234-1.241 1.305-1.241 1.305l-0.345 1.42c-0.195 0.906 0.327 0.871 0.544 0.795 0.468-0.14 0.729-0.284 1.687-0.497 0.914-0.207 1.878-0.364 2.642-0.353 1.128 0 1.991 0.119 2.566 0.362 0.567 0.247 0.851 0.67 0.851 1.282l-0.049 0.399-0.407 0.251c-1.601 0.101-2.757 0.249-4.16 0.452-1.372 0.191-2.576 0.526-3.577 0.984-1.074 0.473-1.871 1.107-2.428 1.915-0.538 0.811-0.807 1.796-0.807 2.95 0 1.087 0.39 1.985 1.148 2.679 0.762 0.682 1.769 1.015 2.973 1.015 0.762-0.004 1.352-0.064 1.771-0.164l1.366-0.47 1.157-0.641 1.064-0.703 0.014 0.021-0.107 0.452-0.006 0.018v0.004c-0.115 0.551 0.218 1.003 0.754 1.056l0.010 0.012h2.619l0.037-0.016c0.563-0.066 1.091-0.518 1.214-1.056l2.056-8.902 0.107-0.725 0.049-0.68c0.008-1.261-0.536-2.196-1.602-2.794zM27.614 18.155l-0.44 0.579-1.109 0.573c-0.522 0.212-1.017 0.318-1.475 0.318-0.694 0-1.239-0.101-1.607-0.306l-0.544-1.058c0-0.573 0.131-1.027 0.413-1.376l1.196-0.814c0.512-0.173 1.136-0.318 1.859-0.419 0.645-0.080 1.919-0.226 2.085-0.23l0.195 0.343c-0.039 0.195-0.401 1.707-0.573 2.389z"></path>
<path fill="#858fa4" d="M83.396 8.158c-1.070-0.6-2.749-0.902-5.039-0.902-1.136 0-2.27 0.088-3.41 0.271-0.846 0.123-0.931 0.15-1.452 0.261-1.070 0.232-1.237 1.307-1.237 1.307l-0.345 1.418c-0.193 0.906 0.316 0.865 0.555 0.795 0.47-0.14 0.723-0.277 1.672-0.499 0.91-0.205 1.882-0.357 2.648-0.353 1.124 0 1.987 0.121 2.56 0.364 0.571 0.247 0.85 0.674 0.85 1.28l-0.043 0.396-0.403 0.257c-1.617 0.097-2.775 0.245-4.164 0.448-1.368 0.191-2.576 0.524-3.579 0.984-1.070 0.475-1.878 1.109-2.428 1.919-0.544 0.812-0.809 1.794-0.809 2.938 0 1.095 0.386 1.993 1.155 2.683 0.766 0.68 1.763 1.021 2.967 1.021 0.758-0.008 1.348-0.058 1.769-0.166l1.362-0.464 1.167-0.641 1.056-0.711 0.019 0.023-0.097 0.456-0.010 0.008 0.004 0.008c-0.127 0.551 0.208 1.007 0.75 1.056l0.004 0.010h0.049c0.355 0 1.584 0 2.169 0h0.398l0.043-0.014c0.557-0.068 1.083-0.52 1.2-1.064l2.063-8.889 0.109-0.729 0.059-0.682c0.002-1.257-0.536-2.188-1.611-2.786zM78.858 18.167l-0.458 0.586-1.099 0.569c-0.522 0.209-1.019 0.318-1.469 0.318-0.717 0-1.247-0.103-1.604-0.308l-0.551-1.054c0-0.575 0.134-1.025 0.403-1.381 0.273-0.335 0.69-0.61 1.208-0.811 0.505-0.173 1.13-0.312 1.857-0.417 0.641-0.080 1.911-0.23 2.075-0.232l0.199 0.343c-0.029 0.195-0.392 1.701-0.561 2.387z"></path>
<path fill="#858fa4" d="M69.79 5.742c-0.353-0.684-0.883-1.237-1.553-1.668-0.686-0.427-1.5-0.727-2.451-0.9-0.935-0.166-2.050-0.257-3.318-0.259l-5.898 0.004c-0.614 0.010-1.204 0.487-1.346 1.072l-3.967 17.269c-0.144 0.585 0.251 1.070 0.85 1.070l2.825-0.004c0.6 0.004 1.214-0.477 1.356-1.068l0.955-4.193c0.14-0.583 0.746-1.074 1.356-1.070h0.807c3.453 0 6.13-0.711 8.057-2.118 1.904-1.424 2.868-3.287 2.868-5.602-0.010-1.009-0.185-1.861-0.542-2.533zM63.707 11.389c-0.85 0.612-2.038 0.925-3.558 0.925h-0.703c-0.606 0.006-0.999-0.487-0.863-1.074l0.855-3.659c0.125-0.586 0.737-1.077 1.348-1.070l0.914-0.006c1.085 0.006 1.898 0.185 2.453 0.546 0.553 0.362 0.814 0.929 0.82 1.68 0.006 1.146-0.419 2.030-1.266 2.658z"></path>
<path fill="#858fa4" d="M93.974 4.129c0.129-0.59-0.24-1.068-0.846-1.060h-2.527c-0.518 0-0.984 0.384-1.212 0.857l-0.14 0.218-0.127 0.559-3.531 16.053-0.115 0.493 0.004 0.012c-0.117 0.528 0.207 0.927 0.709 1.003l0.043 0.059h2.623c0.514 0 0.996-0.39 1.216-0.871l0.136-0.205 3.776-17.115-0.008-0.002z"></path>
<path fill="#858fa4" d="M51.328 7.462c-0.668 0.008-3.381 0-3.381 0-0.608 0-1.389 0.491-1.775 1.077 0 0-4.039 6.932-4.431 7.628l-0.468-0.006-1.257-7.575c-0.14-0.596-0.762-1.105-1.537-1.105l-2.527 0.004c-0.608 0-0.982 0.485-0.844 1.077 0 0 1.919 10.919 2.303 13.489 0.179 1.418-0.023 1.67-0.023 1.67l-2.498 4.351c-0.37 0.591-0.17 1.074 0.436 1.074l2.921-0.004c0.608 0 1.407-0.479 1.769-1.072l11.238-19.007c0 0.002 1.081-1.623 0.076-1.6z"></path>
</svg>
