<!-- Generated by IcoMoon.io -->
<svg version="1.1" xmlns="http://www.w3.org/2000/svg" width="32" height="32" viewBox="0 0 32 32">

<path d="M31.999 16c0-8.842-7.156-15.999-15.999-15.999-8.842 0-15.999 7.156-15.999 15.999 0 8.616 6.889 15.858 15.742 15.996 0.15 0.007 0.477 0 0.483 0 0.003 0 0.014-0 0.017-0 8.734-0.129 15.756-7.247 15.756-15.996zM16 0.938c8.324 0 15.062 6.736 15.062 15.062 0 3.47-1.167 6.761-3.313 9.426-0.037-1.68-1.126-3.138-2.735-3.648l-3.032-0.96c-0.172-0.147-0.126-0.084-2.918-1.467v-1.299c1.217-0.864 2.060-2.228 2.215-3.802 0.578-0.098 1.019-0.602 1.019-1.208 0-0.898 0-3.85 0-4.771 0-1.050-0.855-1.905-1.905-1.905h-0.048c-0.009 0-0.016-0.007-0.016-0.016 0-1.050-0.855-1.905-1.905-1.905h-4.949c-2.081 0-3.774 1.693-3.774 3.774 0 0.259 0.21 0.469 0.469 0.469s0.469-0.21 0.469-0.469c0-1.564 1.272-2.837 2.837-2.837h4.949c0.533 0 0.967 0.434 0.967 0.967 0 0.526 0.428 0.954 0.954 0.954h0.048c0.533 0 0.967 0.434 0.967 0.967v2.667h-0.524c-0.293 0-0.531-0.238-0.531-0.531v-0.547c0-1.040-1.015-1.773-2.002-1.447-1.486 0.491-3.123 0.491-4.611-0-0.987-0.326-2.002 0.407-2.002 1.447v0.547c0 0.293-0.238 0.531-0.531 0.531h-0.524v-0.553c0-0.259-0.21-0.469-0.469-0.469s-0.469 0.21-0.469 0.469v2.656c0 0.605 0.441 1.11 1.019 1.208 0.155 1.573 0.998 2.937 2.215 3.802v1.3c-2.786 1.38-2.749 1.322-2.918 1.467l-3.031 0.96c-1.608 0.509-2.697 1.968-2.735 3.648-2.146-2.665-3.313-5.956-3.313-9.426 0-8.324 6.736-15.062 15.062-15.062zM10.626 24.442l0.364-0.364c0.38-0.38 0.47-0.955 0.224-1.433l-0.578-1.12 1.894-0.931c-0.202 0.843-0.195 1.769-0.098 2.638 0 0.001 0 0.001 0 0.002 0.242 2.165 1.126 4.621 2.009 6.612-1.455-1.464-3.398-3.617-3.888-5.109-0.034-0.104-0.007-0.217 0.072-0.295zM10.637 11.877h0.524c0.809 0 1.468-0.659 1.468-1.468v-0.547c0-0.398 0.388-0.683 0.772-0.556 1.676 0.553 3.522 0.553 5.197-0 0.38-0.125 0.77 0.157 0.77 0.557v0.547c0 0.809 0.659 1.468 1.468 1.468h0.524v1.165c0 0.158-0.129 0.287-0.287 0.287-0.377 0-0.691 0.296-0.715 0.674-0.145 2.293-2.059 4.090-4.359 4.090s-4.215-1.796-4.359-4.090c-0.024-0.378-0.338-0.674-0.715-0.674-0.158 0-0.287-0.129-0.287-0.287v-1.165h-0zM16 30.955c-0.304-0.61-0.715-1.479-1.126-2.488l0.77-3.027h0.713l0.769 3.026c-0.412 1.011-0.823 1.881-1.126 2.489zM15.383 22.582c-0.265 0.222-0.809 0.676-1.235 1.032-0.089 0.074-0.216 0.074-0.304 0.002l-0.495-0.613c-0.082-0.822-0.074-1.73 0.183-2.508l1.851 2.087zM13.995 24.608c0.12 0 0.239-0.019 0.354-0.056l0.418 0.528-0.472 1.857c-0.27-0.78-0.514-1.592-0.693-2.398 0.127 0.045 0.26 0.069 0.393 0.069zM16.486 24.502h-0.98l-0.381-0.482 0.926-0.774 0.838 0.717-0.403 0.539zM17.868 23.566l-1.154-0.987 1.758-2.068c0.251 0.772 0.258 1.667 0.179 2.472l-0.479 0.587c-0.089 0.072-0.216 0.071-0.304-0.005zM15.999 19.031c0.754 0 1.474-0.16 2.127-0.447v0.888l-2.079 2.445-2.175-2.452v-0.881c0.653 0.287 1.373 0.447 2.127 0.447zM17.704 26.935l-0.474-1.863 0.426-0.57c0.119 0.040 0.243 0.060 0.367 0.060 0.129 0 0.259-0.023 0.382-0.066-0.179 0.814-0.424 1.638-0.702 2.438zM5.187 26.483v-0.969c0-1.306 0.837-2.449 2.082-2.843l2.499-0.791c0.025 0.058-0.001 0.002 0.613 1.195 0.058 0.113 0.037 0.25-0.053 0.34l-0.364 0.364c-0.33 0.33-0.445 0.809-0.3 1.251 0.598 1.824 2.952 4.349 4.567 5.93-3.43-0.399-6.595-1.952-9.044-4.476zM17.768 30.959c0.871-0.852 1.963-1.984 2.875-3.131 0.161-0.203 0.128-0.497-0.075-0.659s-0.497-0.128-0.659 0.075c-0.736 0.925-1.597 1.844-2.355 2.606 0.886-1.996 1.773-4.46 2.013-6.632 0-0.001 0-0.002 0-0.002 0.095-0.863 0.101-1.781-0.1-2.622l1.894 0.931-0.578 1.121c-0.246 0.478-0.156 1.053 0.224 1.433l0.364 0.364c0.078 0.078 0.106 0.191 0.072 0.295-0.073 0.224-0.185 0.475-0.332 0.747-0.123 0.228-0.038 0.512 0.19 0.635s0.512 0.038 0.635-0.19c0.173-0.321 0.307-0.624 0.398-0.901 0.145-0.442 0.030-0.921-0.3-1.251l-0.364-0.364c-0.090-0.090-0.111-0.227-0.053-0.34 0.61-1.184 0.589-1.137 0.614-1.195l2.5 0.791c1.245 0.394 2.082 1.537 2.082 2.843v0.969c-2.443 2.518-5.607 4.076-9.045 4.476z"></path>
</svg>
