<!-- Generated by IcoMoon.io -->
<svg version="1.1" xmlns="http://www.w3.org/2000/svg" width="32" height="32" viewBox="0 0 32 32">
<title>search</title>
<path fill="#858fa4" opacity="0.7" d="M18.315 27.368c-3.036-0.001-5.985-1.017-8.377-2.887l-7.52 7.519-2.419-2.419 7.52-7.519c-1.871-2.392-2.888-5.341-2.889-8.378 0-7.545 6.139-13.684 13.685-13.684s13.685 6.139 13.685 13.684c0 7.545-6.139 13.684-13.685 13.684zM18.315 3.421c-5.66 0-10.264 4.603-10.264 10.263s4.603 10.263 10.264 10.263c5.66 0 10.264-4.603 10.264-10.263s-4.603-10.263-10.264-10.263z"></path>
</svg>
