<!-- Generated by IcoMoon.io -->
<svg version="1.1" xmlns="http://www.w3.org/2000/svg" width="37" height="32" viewBox="0 0 37 32">

<path d="M36.154 23.897c0.297 0 0.537-0.241 0.537-0.537v-1.039c0-1.051-0.802-1.906-1.788-1.906h-0.87v-1.101c0-0.771-0.627-1.397-1.397-1.397h-4.326c-0.771 0-1.397 0.627-1.397 1.397v2.868c-3.865-0.451-8.675-0.452-12.546 0v-2.868c0-0.771-0.627-1.397-1.397-1.397h-0.342c2.946-1.794 6.241-4.227 8.811-6.597l1.687 2.319c0.454 0.624 1.33 0.761 1.952 0.308l3.499-2.545c0 0 0 0 0-0 0.623-0.453 0.761-1.329 0.308-1.952l-0.648-0.891 0.703-0.512c0.798-0.58 0.944-1.743 0.325-2.593l-2.917-4.011c-0.618-0.85-1.77-1.069-2.567-0.489l-0.703 0.512-0.648-0.891c-0.453-0.623-1.329-0.761-1.952-0.308l-3.499 2.545c-0.623 0.453-0.761 1.329-0.308 1.952l1.687 2.319c-3.391 1.909-7.281 4.738-10.146 7.38l-1.241-1.706c-0.699-0.961-2.051-1.174-3.012-0.475l-2.272 1.653c-0.961 0.699-1.174 2.050-0.475 3.012l0.202 0.277-0.703 0.512c-0.813 0.592-0.931 1.761-0.325 2.593l2.917 4.011c0.319 0.439 0.787 0.718 1.286 0.792v2.148c0 1.051 0.802 1.906 1.788 1.906h0.87v1.101c0 0.771 0.627 1.397 1.397 1.397h4.326c0.771 0 1.397-0.627 1.397-1.397v-2.868c1.527 0.178 3.245 0.289 5.008 0.325 0.004 0 0.007 0 0.011 0 0.292 0 0.531-0.234 0.537-0.527 0.006-0.297-0.23-0.542-0.527-0.548-1.778-0.036-3.506-0.15-5.030-0.332v-3.073c3.802-0.456 8.665-0.465 12.546 0v3.073c-1.524 0.182-3.252 0.297-5.030 0.332-0.297 0.006-0.533 0.251-0.527 0.548 0.006 0.293 0.245 0.527 0.537 0.527 0.004 0 0.007 0 0.011-0 1.764-0.035 3.481-0.147 5.008-0.325v2.868c0 0.771 0.627 1.397 1.397 1.397h4.326c0.771 0 1.397-0.627 1.397-1.397v-1.101h0.87c0.986 0 1.788-0.855 1.788-1.906v-1.412c0-0.297-0.241-0.537-0.537-0.537s-0.537 0.241-0.537 0.537v1.412c0 0.45-0.327 0.831-0.713 0.831h-0.87v-6.621h0.87c0.387 0 0.713 0.38 0.713 0.831v1.039c-0 0.297 0.241 0.537 0.537 0.537zM24.411 1.823c0.313-0.227 0.801-0.112 1.066 0.252l2.917 4.011c0.265 0.364 0.224 0.864-0.088 1.091l-0.703 0.512c-0.436-0.599-3.452-4.746-3.895-5.354l0.703-0.512zM17.538 4.132c-0.103-0.141-0.070-0.348 0.071-0.451l3.499-2.545c0.142-0.103 0.348-0.070 0.451 0.071 0.218 0.299 5.231 7.192 5.491 7.549 0 0 0 0 0 0l0.964 1.325c0.103 0.141 0.070 0.348-0.071 0.451l-3.499 2.545c-0.142 0.103-0.346 0.072-0.45-0.071-0.212-0.291-6.199-8.522-6.455-8.874zM18.992 7.958l1.808 2.486c-2.796 2.595-6.719 5.464-10.146 7.38l-1.808-2.485c2.789-2.588 6.713-5.462 10.146-7.38zM4.586 22.32v1.706c-0.16-0.060-0.308-0.17-0.416-0.319l-2.917-4.011c-0.277-0.381-0.215-0.871 0.088-1.091l0.703-0.512c0.085 0.117 0.753 1.035 2.635 3.622-0.064 0.204-0.093 0.414-0.093 0.605zM7.244 28.11h-0.87c-0.387 0-0.713-0.38-0.713-0.831 0-0.486 0-4.453 0-4.96 0-0.188 0.062-0.391 0.185-0.55 0.146-0.19 0.344-0.281 0.529-0.281h0.87v6.621h0zM7.244 19.313v1.101h-0.87c-0.044 0-0.087 0.002-0.13 0.006-0.008 0.001-0.015 0.001-0.023 0.002-0.333 0.030-0.64 0.158-0.896 0.356l-3.247-4.464c-0.351-0.482-0.244-1.159 0.238-1.51l2.272-1.653c0.48-0.349 1.161-0.242 1.51 0.238 0.391 0.538 2.873 3.95 3.292 4.526h-0.75c-0.77 0-1.397 0.627-1.397 1.398zM13.29 30.286c0 0.175-0.148 0.323-0.322 0.323h-4.326c-0.175 0-0.322-0.148-0.322-0.323 0-0.506 0-10.644 0-10.973 0-0.175 0.148-0.322 0.322-0.322 1.094 0 1.698 0 2.012 0 0.227 0 0.303 0 0.303 0 0.314 0 0.918 0 2.011 0 0.175 0 0.322 0.148 0.322 0.322 0 0.665 0 10.564 0 10.973zM32.958 30.286c0 0.175-0.148 0.323-0.322 0.323h-4.326c-0.175 0-0.323-0.148-0.323-0.323v-10.973c0-0.175 0.148-0.322 0.323-0.322h4.326c0.175 0 0.322 0.148 0.322 0.322 0 0.662 0 10.618 0 10.973z"></path>
</svg>
