<!-- Generated by IcoMoon.io -->
<svg version="1.1" xmlns="http://www.w3.org/2000/svg" width="32" height="32" viewBox="0 0 32 32">
<title>visa</title>
<path fill="#858fa4" d="M12.814 11.239l-1.626 9.544h2.601l1.628-9.544h-2.602z"></path>
<path fill="#858fa4" d="M9.007 11.249l-2.547 6.509-0.272-0.983c-0.502-1.184-1.929-2.885-3.603-3.956l2.329 7.959 2.752-0.005 4.096-9.526-2.756 0.002z"></path>
<path fill="#858fa4" d="M5.2 11.933c-0.151-0.581-0.589-0.755-1.133-0.775h-4.033l-0.033 0.19c3.138 0.761 5.215 2.596 6.077 4.801l-0.877-4.216z"></path>
<path fill="#858fa4" d="M20.688 13.068c0.851-0.013 1.468 0.173 1.947 0.365l0.235 0.11 0.352-2.069c-0.515-0.193-1.323-0.401-2.33-0.401-2.57 0-4.382 1.294-4.396 3.15-0.017 1.371 1.29 2.136 2.278 2.593 1.014 0.468 1.353 0.766 1.349 1.184-0.008 0.639-0.808 0.932-1.555 0.932-1.042 0-1.595-0.144-2.449-0.5l-0.335-0.153-0.366 2.136c0.609 0.267 1.732 0.496 2.898 0.508 2.734 0 4.511-1.279 4.53-3.261 0.011-1.084-0.682-1.912-2.186-2.591-0.91-0.443-1.466-0.737-1.461-1.184 0-0.397 0.472-0.821 1.491-0.821z"></path>
<path fill="#858fa4" d="M29.895 11.249h-2.010c-0.624 0-1.088 0.17-1.363 0.792l-3.862 8.746h2.732c0 0 0.446-1.176 0.547-1.434 0.299 0 2.953 0.004 3.331 0.004 0.078 0.333 0.317 1.43 0.317 1.43h2.413l-2.105-9.539zM26.687 17.401c0.214-0.548 1.036-2.667 1.036-2.667-0.014 0.026 0.212-0.552 0.346-0.911l0.175 0.823c0 0 0.498 2.279 0.603 2.756h-2.161z"></path>
</svg>
