<!-- Generated by IcoMoon.io -->
<svg version="1.1" xmlns="http://www.w3.org/2000/svg" width="32" height="32" viewBox="0 0 32 32">
<title>youtube</title>
<path fill="#909cb5" d="M18.671 15.722l-3.743-1.747c-0.327-0.152-0.595 0.018-0.595 0.38v3.29c0 0.362 0.268 0.532 0.595 0.38l3.741-1.747c0.328-0.153 0.328-0.403 0.002-0.556zM16 0c-8.836 0-15.999 7.163-15.999 15.999s7.163 15.999 15.999 15.999c8.836 0 15.999-7.163 15.999-15.999s-7.163-15.999-15.999-15.999zM16 22.5c-8.19 0-8.333-0.738-8.333-6.5s0.143-6.5 8.333-6.5 8.333 0.738 8.333 6.5c0 5.761-0.143 6.5-8.333 6.5z"></path>
</svg>
